<?xml version="1.0" encoding="UTF-8" standalone="no"?>
<!-- Created with Inkscape (http://www.inkscape.org/) -->

<svg
	width="32"
	height="32"
	viewBox="0 0 32 32"
	version="1.1"
	id="svg1"
	xml:space="preserve"
	xmlns="http://www.w3.org/2000/svg"
	xmlns:svg="http://www.w3.org/2000/svg">
	<defs id="defs1">
	<clipPath
		clipPathUnits="userSpaceOnUse"
		id="clipPath2">
		<ellipse
			style="fill:#5fb9b0;stroke-width:1.29741"
			id="ellipse2"
			ry="14"
			rx="14"
			cy="16"
			cx="16" />
	</clipPath>
	</defs>
	<g
		id="layer1">
		<ellipse
			style="fill:#da4000;fill-opacity:1;stroke-width:1.29741"
			id="path1"
			ry="14"
			rx="14"
			cy="16"
			cx="16" />
		<g id="layer3" clip-path="url(#clipPath2)">
			<rect
				style="fill:#1a1a1a;stroke-width:0.808967"
				id="rect2"
				width="32.443569"
				height="9.6782875"
				x="-0.18260922"
				y="22.400061" />
			<path
				style="fill:#1a1a1a;fill-opacity:1"
				d="m 19.71875,15.300781 0.183594,0.167969 0.226562,0.429688 0.648438,-0.234375 0.804687,0.08984 0.144531,0.214844 0.277344,0.121094 -0.28125,-0.476563 -0.257812,-0.171875 -0.453125,-0.03906 0.484375,-0.121094 0.714843,0.01563 0.664063,0.144531 1.5,0.08203 0.347656,0.492187 -0.148437,-0.664062 -0.730469,-0.07813 -0.800781,-0.183594 0.898437,0.05469 0.617188,-0.316406 0.902343,-0.1875 0.710938,0.503906 -0.453125,-0.691406 -0.40625,-0.207031 -0.796875,0.144531 -1.304688,0.511719 -1.261718,-0.25 -0.871094,0.128906 -0.820313,0.457031 -0.566406,0.05078 z"
				id="path3" />
			<path
				style="fill:#1a1a1a;fill-opacity:1"
				d="m 23.714844,14.558594 0.476562,-0.175781 0.335938,-0.371094 0.164062,-0.441406 L 24.25,14.152344 Z"
				id="path4" />
			<path
				style="fill:#1a1a1a;fill-opacity:1"
				d="m 20.945312,14.691406 0.128907,-0.08594 0.355468,-0.05469 0.183594,-0.296875 0.0078,-0.164062 0.472656,-0.441406 -0.609375,0.292968 -0.08984,0.09766 0.0039,0.164062 z"
				id="path5" />
			<path
				style="fill:#1a1a1a;fill-opacity:1"
				d="m 20.097656,10.167969 h 0.230469 l 0.183594,0.113281 0.527343,-0.6289062 0.257813,-0.1015625 0.5,0.070312 L 22.132812,9.5625 23.03125,8.1328125 22.824219,8.2851563 21.988281,9.25 21.800781,9.324219 21.214844,9.2109377 20.910156,9.3320315 Z"
				id="path6" />
			<path
				style="fill:#1a1a1a;fill-opacity:1"
				d="M 17.109375,13.238281 17.4375,12.8125 l -0.09766,-0.304687 -0.195313,-0.28125 -0.140625,-0.300782 -0.21875,-0.207031 0.113281,0.421875 0.253907,0.515625 z"
				id="path7" />
			<path
				style="fill:#1a1a1a;fill-opacity:1"
				d="M 17.789062,9.6914063 18.09375,8.9804688 18.238281,8.796875 18.132812,8.3867188 17.910156,7.9335937 l 0.04297,-0.9101562 -0.05078,-0.46875 -0.3125,1.4648438 0.160156,0.421875 z"
				id="path8" />
			<path
				style="fill:#1a1a1a;fill-opacity:1"
				d="m 12.473806,15.280136 0.381174,0.381174 -1.187718,0.254117 c 0,0 -0.298311,0.165728 -0.309359,0.187825 -0.01105,0.0221 -0.276214,0.690534 -0.276214,0.690534 l -0.679485,1.198767 0.09944,-0.618718 0.331456,-0.905981 0.06077,-0.535854 0.11601,-0.149156 z"
				id="path9" />
			<path
				style="fill:#1a1a1a;fill-opacity:1"
				d="M 10.640625,16.441406 10.488281,16.875 9.0390625,17.210937 9.4023438,16.929687 Z"
				id="path10" />
			<path
				style="fill:#1a1a1a;fill-opacity:1"
				d="m 12.219689,15.042592 -0.276214,-1.027515 -0.718155,-0.276213 -0.574524,-0.06077 -1.1821943,0.193349 -0.2872621,-0.09391 -1.3589708,-1.298204 0.1491553,0.419844 0.7954951,0.994369 0.243068,0.430894 0.3977476,0.127058 0.5082329,-0.05524 0.9225533,-0.110485 0.408796,0.06629 0.591097,0.541379 z"
				id="path11" />
			<path
				style="fill:#1a1a1a;fill-opacity:1"
				d="m 8.5039063,13.824219 0.1367187,0.128906 0.1445313,0.269531 -0.8281251,0.230469 -0.3476562,0.199219 -1.0625,-0.378906 0.3085937,-0.03906 0.6054688,0.136719 z"
				id="path12" />
			<path
				style="fill:#1a1a1a;fill-opacity:1"
				d="m 11.863281,13.828125 -0.554687,-0.226562 -0.410156,-0.05859 -0.535157,-0.496094 -0.308593,-1.136719 0.214843,0.253907 0.253907,0.617187 0.179687,0.214844 z"
				id="path13" />
			<path
				style="fill:#1a1a1a;fill-opacity:1"
				d="m 12.28125,11.972656 -0.644531,-0.871093 -0.738281,-0.265625 -0.730469,0.01172 -1.214844,-0.683593 0.3828125,0.4375 L 10,11.109375 l 0.699219,0.04297 0.855469,0.265625 z"
				id="path14" />
			<path
				style="fill:#1a1a1a;fill-opacity:1"
				d="M 11.742188,9.53125 11.859375,8.3710938 12.183594,8.09375 12.640625,7.8867187 12.953125,7.5 12.769531,8.0234375 12.136719,8.4804688 Z"
				id="path15" />
			<path
				style="fill:#1a1a1a;fill-opacity:1"
				d="m 13.4375,12.191406 0.566406,1.539063 0.121094,-1.65625 0.597656,-1.546875 -0.0078,-0.316406 L 15.226563,9.0820313 16.230469,8.4335938 15.382813,8.7695313 14.984375,9.015625 14.710938,9.3984375 14.25,10.625 13.828125,11.472656 13.808594,10.871094 13.628906,10.476563 13.511719,9.4375 l -0.117188,0.5546875 0.117188,0.8398435 0.0078,0.914063 z"
				id="path16" />
			<path
				style="fill:#1a1a1a;fill-opacity:1"
				d="M 14.445313,9.7304688 14.628906,9.2578126 14.519531,8.6054688 14.324219,8.2539063 14.417969,8.7734375 Z"
				id="path17" />
			<path
				style="fill:#1a1a1a;fill-opacity:1"
				d="m 15.042969,22.618255 0.344331,-2.711608 -0.645621,-2.238153 -0.968431,-1.183638 -1.355804,-1.420366 -0.37956,-1.325354 0.148946,-0.433811 0.414571,1.232866 0.784474,0.26805 -0.903869,-2.883773 -1.464585,-1.77244 -0.304348,-1.514135 -0.608698,-0.7684803 0.798915,0.4869578 0.220653,0.8293501 0.304349,-2.2902236 -0.836959,-0.9358721 0.479349,0.1141307 0.71522,0.7380455 -0.0837,1.3239166 -0.129349,1.4380474 0.213045,0.6467409 0.859784,0.958698 0.623915,0.973916 0.82935,2.214136 0.190218,0.95109 0.547828,0.753263 -0.05326,-0.875003 0.106522,-0.334783 -0.190218,-1.179351 0.152174,-0.410871 0.861008,-0.849085 -0.288486,0.516951 -0.389913,0.53757 0.05326,0.890219 0.190218,0.616306 -0.11413,0.372827 0.07609,1.004351 0.152174,0.47174 0.479349,0.601089 0.479349,1.339134 0.12174,-0.388044 v -0.281523 l 0.418479,-1.011959 -0.106522,-0.966307 -0.388044,-0.783698 -0.03044,-0.395653 0.327175,0.433697 0.175,0.182609 0.175001,0.410871 0.05326,-0.867394 -0.243479,-1.019568 0.251087,-0.578263 0.616306,-0.821741 0.04565,-0.616306 -0.205436,-1.019568 0.182609,-0.760872 0.486958,-1.1184809 0.996742,-1.4760909 0.251088,-0.3043487 0.02283,-0.7989152 -0.144566,-0.776089 0.05326,-0.243479 0.365219,1.1413075 0.01522,0.8369588 -0.646741,0.7989152 -0.502175,1.1184813 -0.365218,1.4304389 0.159783,0.494566 0.342392,-0.585871 0.639132,-0.365218 0.920655,-0.12174 0.601088,0.677176 0.913046,0.266305 -0.266305,0.182609 -0.920655,-0.159783 -0.433696,-0.59348 -1.042394,0.403262 -0.570654,1.582613 -0.388045,0.494567 -0.448914,0.65435 -0.04565,0.852176 0.555436,-0.875003 1.247829,-0.547827 0.471741,-1.088047 0.03044,0.190218 -0.281523,1.141308 -0.243479,0.175 -0.859785,0.319566 -0.365218,0.669567 -0.121739,1.019568 0.456523,-0.357609 0.738045,0.0076 0.327175,0.144566 0.943481,1.400004 -0.0913,0.273914 -0.798915,0.700001 0.144565,-0.327174 0.464132,-0.509784 -1.042394,-1.339134 0.106522,0.372827 -0.410871,-0.01522 -0.517392,0.479349 -1.225004,2.259789 -0.197826,0.920655 -0.319566,0.623915 -0.04565,2.25218 z"
				id="path2" />
		</g>
	</g>
</svg>
